<svg width="46" height="16" viewBox="0 0 46 16" fill="none" xmlns="http://www.w3.org/2000/svg">
<path d="M0.934289 7.68L1.59379 6.29333L3.3039 3.49284C3.33617 3.43999 3.37415 3.39087 3.41717 3.34634L5.11499 1.58888C5.42486 1.26811 5.94813 1.61753 5.77061 2.02667L5.62504 2.36057C5.32231 3.05495 5.16607 3.8043 5.16607 4.56179V4.88626C5.16607 5.35793 5.25419 5.82546 5.4259 6.26476C5.65222 6.84378 6.01762 7.35818 6.48984 7.76252L6.52462 7.7923C7.24388 8.40818 8.15961 8.74667 9.10653 8.74667H10.3554C10.9604 8.74667 11.5632 8.67194 12.1499 8.5242L46 0L26.27 8.21333L18.9056 11.2L10.552 14.72L7.3489 15.7707C6.88586 15.9226 6.40165 16 5.91434 16C5.59952 16 5.28553 15.9677 4.9773 15.9036L4.61056 15.8273C4.13911 15.7293 3.67717 15.5901 3.23001 15.4115L2.96774 15.3067L2.28736 14.9244C2.04542 14.7885 1.81768 14.6287 1.60755 14.4474L1.56643 14.412C1.14971 14.0525 0.813618 13.609 0.58018 13.1107C0.450315 12.8334 0.353486 12.5418 0.291687 12.242L0.256665 12.0721C0.0878813 11.2531 0.112373 10.406 0.328196 9.59819L0.384707 9.38667L0.934289 7.68Z" fill="#B2B2B2"/>
</svg>
